<svg width="278" height="278" viewBox="0 0 278 278" fill="none" xmlns="http://www.w3.org/2000/svg">
<path fill-rule="evenodd" clip-rule="evenodd" d="M139 0.370667C62.4371 0.370667 0.370667 62.4371 0.370667 139C0.370667 215.563 62.4371 277.629 139 277.629C215.563 277.629 277.629 215.563 277.629 139C277.629 62.4371 215.563 0.370667 139 0.370667ZM139 0C62.2324 0 0 62.2324 0 139C0 215.768 62.2324 278 139 278C215.768 278 278 215.768 278 139C278 62.2324 215.768 0 139 0Z" fill="#FAFAFA"/>
<circle r="3.15067" transform="matrix(-1 0 0 1 237.783 236.671)" fill="#FAFAFA"/>
<path fill-rule="evenodd" clip-rule="evenodd" d="M234.294 109.28C248.149 160.988 217.463 214.138 165.755 227.993C114.046 241.849 60.8964 211.163 47.0411 159.454C33.1859 107.746 63.872 54.5956 115.581 40.7404C167.289 26.8851 220.439 57.5712 234.294 109.28ZM234.652 109.184C248.561 161.09 217.757 214.443 165.851 228.351C113.945 242.26 60.5913 211.456 46.6831 159.55C32.7749 107.644 63.5783 54.2906 115.485 40.3823C167.391 26.4741 220.744 57.2776 234.652 109.184Z" fill="#FAFAFA"/>
<circle cx="56.7184" cy="85.2932" r="2.224" transform="rotate(75 56.7184 85.2932)" fill="#FAFAFA"/>
</svg>
