<svg width="239" height="239" viewBox="0 0 239 239" fill="none" xmlns="http://www.w3.org/2000/svg">
<circle r="2.70867" transform="matrix(-1 0 0 1 217.709 51.7087)" fill="#FAFAFA"/>
<path fill-rule="evenodd" clip-rule="evenodd" d="M119.5 0.318665C53.678 0.318665 0.318665 53.678 0.318665 119.5C0.318665 185.322 53.678 238.681 119.5 238.681C185.322 238.681 238.681 185.322 238.681 119.5C238.681 53.678 185.322 0.318665 119.5 0.318665ZM119.5 0C53.502 0 0 53.502 0 119.5C0 185.498 53.502 239 119.5 239C185.498 239 239 185.498 239 119.5C239 53.502 185.498 0 119.5 0Z" fill="#FAFAFA"/>
<path fill-rule="evenodd" clip-rule="evenodd" d="M201.426 93.9489C213.338 138.403 186.956 184.097 142.502 196.009C98.0476 207.92 52.3539 181.539 40.4424 137.084C28.5309 92.63 54.9121 46.9363 99.3665 35.0248C143.821 23.1132 189.515 49.4945 201.426 93.9489ZM201.734 93.8664C213.691 138.491 187.209 184.359 142.585 196.316C97.9601 208.273 52.0917 181.791 40.1346 137.167C28.1775 92.5424 54.6596 46.6741 99.2841 34.717C143.909 22.7599 189.777 49.242 201.734 93.8664Z" fill="#FAFAFA"/>
<path fill-rule="evenodd" clip-rule="evenodd" d="M171.671 101.922C179.179 129.943 162.55 158.745 134.529 166.253C106.508 173.761 77.7063 157.132 70.1982 129.111C62.69 101.091 79.3188 72.2886 107.34 64.7804C135.361 57.2723 164.162 73.9011 171.671 101.922ZM171.865 101.87C179.402 129.998 162.709 158.91 134.581 166.447C106.453 173.984 77.541 157.291 70.0041 129.163C62.4673 101.035 79.1597 72.1233 107.288 64.5864C135.416 57.0496 164.328 73.742 171.865 101.87Z" fill="#FAFAFA"/>
<path fill-rule="evenodd" clip-rule="evenodd" d="M143.209 109.548C146.506 121.85 139.205 134.495 126.903 137.791C114.602 141.087 101.957 133.787 98.6604 121.485C95.3642 109.183 102.665 96.5384 114.967 93.2421C127.268 89.9458 139.913 97.2463 143.209 109.548ZM143.295 109.525C146.604 121.874 139.275 134.567 126.926 137.876C114.577 141.185 101.884 133.857 98.5752 121.508C95.2664 109.159 102.595 96.4658 114.944 93.1569C127.293 89.848 139.986 97.1764 143.295 109.525Z" fill="#FAFAFA"/>
<circle cx="48.7613" cy="73.3276" r="1.912" transform="rotate(75 48.7613 73.3276)" fill="#FAFAFA"/>
<circle cx="159.341" cy="79.3417" r="1.912" transform="rotate(75 159.341 79.3417)" fill="#FAFAFA"/>
<circle cx="98.3414" cy="114.342" r="1.912" transform="rotate(75 98.3414 114.342)" fill="#FAFAFA"/>
</svg>
