<svg width="12" height="10" viewBox="0 0 12 10" fill="none" xmlns="http://www.w3.org/2000/svg">
<path d="M10.847 0H1.03304C0.462291 0 0 0.462291 0 1.03304V8.41939C0 8.69314 0.109116 8.95592 0.302806 9.14962C0.496496 9.34332 0.759279 9.45243 1.03304 9.45243H10.847C11.1207 9.45243 11.3835 9.34331 11.5772 9.14962C11.7709 8.95593 11.88 8.69315 11.88 8.41939V1.03304C11.88 0.759295 11.7709 0.496506 11.5772 0.302806C11.3835 0.109106 11.1207 0 10.847 0ZM9.97404 2.87698L6.64764 4.77778C6.21054 5.03282 5.66947 5.03282 5.23237 4.77778L1.90597 2.87698C1.65804 2.73688 1.57024 2.42245 1.7097 2.17452C1.77813 2.05507 1.89113 1.96726 2.02348 1.93174C2.15648 1.89559 2.29853 1.91431 2.41732 1.98339L5.74372 3.88419C5.86575 3.95134 6.01425 3.95134 6.13628 3.88419L9.46268 1.98339C9.58148 1.91431 9.72352 1.89559 9.85652 1.93174C9.98888 1.96725 10.1019 2.05506 10.1703 2.17452C10.3098 2.42245 10.222 2.73687 9.97403 2.87698H9.97404Z" fill="white"/>
</svg>
