<svg width="117" height="27" viewBox="0 0 117 27" fill="none" xmlns="http://www.w3.org/2000/svg">
<path d="M8.49708 26.594C7.35324 26.594 6.57123 25.9637 6.15104 24.7032L1.17884 10.6269C1.03878 10.2534 0.96875 9.89162 0.96875 9.54146C0.96875 9.00456 1.1555 8.54936 1.529 8.17586C1.92584 7.77902 2.42773 7.58059 3.03466 7.58059C4.06179 7.58059 4.75042 8.14084 5.10058 9.26134L8.67216 20.4663L12.2788 9.26134C12.6289 8.14084 13.3526 7.58059 14.4497 7.58059H14.6948C15.792 7.58059 16.5156 8.14084 16.8658 9.26134L20.5074 20.4663L24.114 9.22632C24.4408 8.12917 25.1294 7.58059 26.1799 7.58059C26.7402 7.58059 27.207 7.77902 27.5805 8.17586C27.9774 8.54936 28.1758 9.00456 28.1758 9.54146C28.1758 9.82159 28.1174 10.1367 28.0007 10.4869L22.9585 24.7032C22.5149 25.9637 21.7329 26.594 20.6124 26.594H20.4724C19.3052 26.594 18.5349 25.9871 18.1614 24.7732L14.5548 13.7783L10.9132 24.7732C10.5397 25.9871 9.78098 26.594 8.63714 26.594H8.49708Z" fill="#1B1D1C"/>
<path d="M35.5829 3.02858V2.81849C35.5829 2.18821 35.8047 1.68632 36.2482 1.31282C36.7151 0.939322 37.2987 0.752573 37.999 0.752573C38.6993 0.752573 39.2712 0.939322 39.7148 1.31282C40.1816 1.68632 40.4151 2.18821 40.4151 2.81849V3.02858C40.4151 3.65886 40.1816 4.17242 39.7148 4.56926C39.2712 4.94276 38.6993 5.12951 37.999 5.12951C37.2987 5.12951 36.7151 4.94276 36.2482 4.56926C35.8047 4.17242 35.5829 3.65886 35.5829 3.02858ZM35.8981 24.353V9.71654C35.8981 9.1096 36.0965 8.60772 36.4933 8.21087C36.9135 7.79069 37.4154 7.58059 37.999 7.58059C38.5826 7.58059 39.0845 7.79069 39.5047 8.21087C39.9249 8.63106 40.1349 9.13295 40.1349 9.71654V24.353C40.1349 24.9366 39.9249 25.4385 39.5047 25.8587C39.1078 26.2555 38.6059 26.4539 37.999 26.4539C37.4154 26.4539 36.9135 26.2555 36.4933 25.8587C36.0965 25.4385 35.8981 24.9366 35.8981 24.353Z" fill="#1B1D1C"/>
<path d="M49.4187 24.353V2.64341C49.4187 2.05982 49.6171 1.5696 50.014 1.17276C50.4342 0.752573 50.936 0.54248 51.5196 0.54248C52.1032 0.54248 52.6051 0.752573 53.0253 1.17276C53.4455 1.5696 53.6556 2.05982 53.6556 2.64341V24.353C53.6556 24.9366 53.4455 25.4385 53.0253 25.8587C52.6285 26.2555 52.1266 26.4539 51.5196 26.4539C50.936 26.4539 50.4342 26.2555 50.014 25.8587C49.6171 25.4385 49.4187 24.9366 49.4187 24.353Z" fill="#1B1D1C"/>
<path d="M62.6242 3.02858V2.81849C62.6242 2.18821 62.846 1.68632 63.2895 1.31282C63.7564 0.939322 64.34 0.752573 65.0403 0.752573C65.7406 0.752573 66.3125 0.939322 66.756 1.31282C67.2229 1.68632 67.4563 2.18821 67.4563 2.81849V3.02858C67.4563 3.65886 67.2229 4.17242 66.756 4.56926C66.3125 4.94276 65.7406 5.12951 65.0403 5.12951C64.34 5.12951 63.7564 4.94276 63.2895 4.56926C62.846 4.17242 62.6242 3.65886 62.6242 3.02858ZM62.9393 24.353V9.71654C62.9393 9.1096 63.1378 8.60772 63.5346 8.21087C63.9548 7.79069 64.4567 7.58059 65.0403 7.58059C65.6239 7.58059 66.1257 7.79069 66.5459 8.21087C66.9661 8.63106 67.1762 9.13295 67.1762 9.71654V24.353C67.1762 24.9366 66.9661 25.4385 66.5459 25.8587C66.1491 26.2555 65.6472 26.4539 65.0403 26.4539C64.4567 26.4539 63.9548 26.2555 63.5346 25.8587C63.1378 25.4385 62.9393 24.9366 62.9393 24.353Z" fill="#1B1D1C"/>
<path d="M86.3343 24.7732C85.7741 26.0104 84.9687 26.629 83.9183 26.629H83.7082C82.6344 26.629 81.829 26.0104 81.2921 24.7732L75.1294 10.662C74.966 10.1717 74.8843 9.82159 74.8843 9.61149C74.8843 9.07459 75.0944 8.60772 75.5145 8.21087C75.9347 7.79069 76.4249 7.58059 76.9852 7.58059C77.9656 7.58059 78.6659 8.09416 79.0861 9.12128L83.8482 21.3767L88.6804 9.05124C89.1006 8.07081 89.7659 7.58059 90.6763 7.58059C91.2598 7.58059 91.7501 7.77902 92.1469 8.17586C92.5437 8.54936 92.7422 9.0279 92.7422 9.61149C92.7422 9.96165 92.6605 10.3001 92.4971 10.6269L86.3343 24.7732Z" fill="#1B1D1C"/>
<path d="M102.633 15.7392H112.122C111.982 14.3152 111.504 13.1481 110.687 12.2377C109.87 11.3273 108.784 10.8721 107.43 10.8721C106.146 10.8721 105.073 11.3273 104.209 12.2377C103.345 13.1247 102.82 14.2919 102.633 15.7392ZM114.574 24.248C112.753 25.882 110.535 26.6991 107.921 26.6991C105.213 26.6991 102.948 25.812 101.128 24.0379C99.3301 22.2404 98.4314 19.9294 98.4314 17.1048V17.0348C98.4314 14.3503 99.2834 12.0743 100.988 10.2068C102.692 8.33926 104.851 7.40552 107.465 7.40552C109.333 7.40552 110.955 7.88406 112.333 8.84115C113.71 9.7749 114.702 10.9187 115.309 12.2727C115.939 13.6033 116.254 15.0156 116.254 16.5095C116.254 17.0931 116.056 17.5834 115.659 17.9802C115.285 18.3537 114.819 18.5404 114.258 18.5404H102.668C102.902 20.0111 103.497 21.1666 104.454 22.007C105.411 22.824 106.59 23.2325 107.991 23.2325C109.601 23.2325 111.06 22.6956 112.368 21.6218C112.694 21.365 113.056 21.2366 113.453 21.2366C113.92 21.2366 114.317 21.4 114.644 21.7269C114.97 22.0537 115.134 22.4622 115.134 22.9524C115.134 23.4426 114.947 23.8745 114.574 24.248Z" fill="#1B1D1C"/>
</svg>
