<svg width="75" height="65" viewBox="0 0 75 65" fill="none" xmlns="http://www.w3.org/2000/svg">
<path fill-rule="evenodd" clip-rule="evenodd" d="M54.8767 7.45901C52.817 7.45901 51.1472 5.78925 51.1472 3.7295C51.1472 1.66976 52.817 0 54.8767 0C56.9365 0 58.6062 1.66976 58.6062 3.7295C58.6062 5.78925 56.9365 7.45901 54.8767 7.45901ZM61.1957 16.8919C60.0889 15.5328 60.296 13.5357 61.6582 12.4314C63.0204 11.327 65.0219 11.5336 66.1287 12.8928C71.9098 19.9922 74.9793 29.0357 74.5502 37.2288C74.1162 45.5131 70.0267 53.2122 61.3063 56.5211C55.1079 58.873 49.1434 57.8685 44.1144 55.3152C41.7496 59.6174 38.0207 63.172 32.597 64.4208C23.113 66.6046 15.2207 62.3603 9.72775 55.919C4.28802 49.5401 0.897446 40.7347 0.0184631 32.6221C-0.170181 30.881 1.09148 29.317 2.83646 29.1288C4.58144 28.9405 6.14896 30.1994 6.33762 31.9405C7.09887 38.9665 10.0643 46.5273 14.5685 51.8092C19.0196 57.0287 24.6593 59.74 31.1678 58.2414C34.5243 57.4686 37.1062 55.046 38.7944 51.8076C37.2743 50.5537 35.9111 49.1882 34.7377 47.7959C31.867 44.3898 29.7636 40.432 29.1718 36.8157C28.8742 34.9967 28.9235 33.0318 29.7043 31.2471C30.5299 29.3598 32.0567 27.9545 34.1213 27.2398C36.2616 26.4989 38.4077 26.4751 40.3761 27.2668C42.3003 28.0408 43.7425 29.4673 44.7737 31.0803C46.7908 34.2353 47.5852 38.6134 47.4305 42.8979C47.3558 44.9677 47.0429 47.1874 46.4568 49.3919C50.3426 51.4918 54.7471 52.225 59.0471 50.5934C64.8839 48.3787 67.868 43.2918 68.2029 36.8978C68.5426 30.4125 66.0763 22.8854 61.1957 16.8919ZM39.6023 43.7143C40.0064 44.1938 40.4283 44.6599 40.8663 45.1098C40.9779 44.3067 41.049 43.491 41.0787 42.6696C41.2065 39.1278 40.4948 36.1796 39.4152 34.4909C38.8981 33.6821 38.3943 33.3075 37.9998 33.1488C37.6494 33.0079 37.1039 32.92 36.2046 33.2313C35.7574 33.3861 35.6212 33.5745 35.5295 33.7841C35.393 34.0962 35.2708 34.7311 35.4447 35.7938C35.796 37.9406 37.2078 40.8732 39.6023 43.7143Z" fill="url(#paint0_linear)"/>
<defs>
<linearGradient id="paint0_linear" x1="100.378" y1="32.5" x2="9.86104" y2="32.99" gradientUnits="userSpaceOnUse">
<stop stop-color="#FF3658"/>
<stop offset="1" stop-color="#F68D36"/>
</linearGradient>
</defs>
</svg>
